<mxfile host="Electron" agent="Mozilla/5.0 (Windows NT 10.0; Win64; x64) AppleWebKit/537.36 (KHTML, like Gecko) draw.io/24.7.17 Chrome/128.0.6613.36 Electron/32.0.1 Safari/537.36" version="24.7.17">
  <diagram name="Page-1" id="DDLZ6jrAf0ivfyf_pAfU">
    <mxGraphModel dx="3950" dy="1928" grid="1" gridSize="10" guides="1" tooltips="1" connect="1" arrows="1" fold="1" page="1" pageScale="1" pageWidth="850" pageHeight="1100" math="0" shadow="0">
      <root>
        <mxCell id="0" />
        <mxCell id="1" parent="0" />
        <mxCell id="SOv-WeR4spH_BK_9IkAW-13" style="edgeStyle=orthogonalEdgeStyle;rounded=0;orthogonalLoop=1;jettySize=auto;html=1;entryX=0.5;entryY=0;entryDx=0;entryDy=0;" parent="1" source="SOv-WeR4spH_BK_9IkAW-1" target="SOv-WeR4spH_BK_9IkAW-5" edge="1">
          <mxGeometry relative="1" as="geometry">
            <Array as="points">
              <mxPoint x="370" y="240" />
              <mxPoint x="180" y="240" />
            </Array>
          </mxGeometry>
        </mxCell>
        <mxCell id="SOv-WeR4spH_BK_9IkAW-14" style="edgeStyle=orthogonalEdgeStyle;rounded=0;orthogonalLoop=1;jettySize=auto;html=1;entryX=0.5;entryY=0;entryDx=0;entryDy=0;" parent="1" source="SOv-WeR4spH_BK_9IkAW-1" target="SOv-WeR4spH_BK_9IkAW-9" edge="1">
          <mxGeometry relative="1" as="geometry">
            <Array as="points">
              <mxPoint x="370" y="240" />
              <mxPoint x="540" y="240" />
            </Array>
          </mxGeometry>
        </mxCell>
        <mxCell id="SOv-WeR4spH_BK_9IkAW-1" value="BaseObj" style="swimlane;fontStyle=0;childLayout=stackLayout;horizontal=1;startSize=30;horizontalStack=0;resizeParent=1;resizeParentMax=0;resizeLast=0;collapsible=1;marginBottom=0;whiteSpace=wrap;html=1;fillColor=#f8cecc;strokeColor=#b85450;" parent="1" vertex="1">
          <mxGeometry x="300" y="120" width="140" height="90" as="geometry" />
        </mxCell>
        <mxCell id="SOv-WeR4spH_BK_9IkAW-2" value="id" style="text;strokeColor=none;fillColor=none;align=left;verticalAlign=middle;spacingLeft=4;spacingRight=4;overflow=hidden;points=[[0,0.5],[1,0.5]];portConstraint=eastwest;rotatable=0;whiteSpace=wrap;html=1;" parent="SOv-WeR4spH_BK_9IkAW-1" vertex="1">
          <mxGeometry y="30" width="140" height="30" as="geometry" />
        </mxCell>
        <mxCell id="SOv-WeR4spH_BK_9IkAW-3" value="objName" style="text;strokeColor=none;fillColor=none;align=left;verticalAlign=middle;spacingLeft=4;spacingRight=4;overflow=hidden;points=[[0,0.5],[1,0.5]];portConstraint=eastwest;rotatable=0;whiteSpace=wrap;html=1;" parent="SOv-WeR4spH_BK_9IkAW-1" vertex="1">
          <mxGeometry y="60" width="140" height="30" as="geometry" />
        </mxCell>
        <mxCell id="SOv-WeR4spH_BK_9IkAW-5" value="LivingObj" style="swimlane;fontStyle=0;childLayout=stackLayout;horizontal=1;startSize=30;horizontalStack=0;resizeParent=1;resizeParentMax=0;resizeLast=0;collapsible=1;marginBottom=0;whiteSpace=wrap;html=1;fillColor=#f8cecc;strokeColor=#b85450;" parent="1" vertex="1">
          <mxGeometry x="110" y="280" width="140" height="120" as="geometry" />
        </mxCell>
        <mxCell id="SOv-WeR4spH_BK_9IkAW-6" value="Item 1" style="text;strokeColor=none;fillColor=none;align=left;verticalAlign=middle;spacingLeft=4;spacingRight=4;overflow=hidden;points=[[0,0.5],[1,0.5]];portConstraint=eastwest;rotatable=0;whiteSpace=wrap;html=1;" parent="SOv-WeR4spH_BK_9IkAW-5" vertex="1">
          <mxGeometry y="30" width="140" height="30" as="geometry" />
        </mxCell>
        <mxCell id="SOv-WeR4spH_BK_9IkAW-7" value="Item 2" style="text;strokeColor=none;fillColor=none;align=left;verticalAlign=middle;spacingLeft=4;spacingRight=4;overflow=hidden;points=[[0,0.5],[1,0.5]];portConstraint=eastwest;rotatable=0;whiteSpace=wrap;html=1;" parent="SOv-WeR4spH_BK_9IkAW-5" vertex="1">
          <mxGeometry y="60" width="140" height="30" as="geometry" />
        </mxCell>
        <mxCell id="SOv-WeR4spH_BK_9IkAW-8" value="Item 3" style="text;strokeColor=none;fillColor=none;align=left;verticalAlign=middle;spacingLeft=4;spacingRight=4;overflow=hidden;points=[[0,0.5],[1,0.5]];portConstraint=eastwest;rotatable=0;whiteSpace=wrap;html=1;" parent="SOv-WeR4spH_BK_9IkAW-5" vertex="1">
          <mxGeometry y="90" width="140" height="30" as="geometry" />
        </mxCell>
        <mxCell id="SOv-WeR4spH_BK_9IkAW-9" value="NPC" style="swimlane;fontStyle=0;childLayout=stackLayout;horizontal=1;startSize=30;horizontalStack=0;resizeParent=1;resizeParentMax=0;resizeLast=0;collapsible=1;marginBottom=0;whiteSpace=wrap;html=1;fillColor=#f8cecc;strokeColor=#b85450;" parent="1" vertex="1">
          <mxGeometry x="470" y="280" width="140" height="120" as="geometry" />
        </mxCell>
        <mxCell id="SOv-WeR4spH_BK_9IkAW-10" value="Item 1" style="text;strokeColor=none;fillColor=none;align=left;verticalAlign=middle;spacingLeft=4;spacingRight=4;overflow=hidden;points=[[0,0.5],[1,0.5]];portConstraint=eastwest;rotatable=0;whiteSpace=wrap;html=1;" parent="SOv-WeR4spH_BK_9IkAW-9" vertex="1">
          <mxGeometry y="30" width="140" height="30" as="geometry" />
        </mxCell>
        <mxCell id="SOv-WeR4spH_BK_9IkAW-11" value="Item 2" style="text;strokeColor=none;fillColor=none;align=left;verticalAlign=middle;spacingLeft=4;spacingRight=4;overflow=hidden;points=[[0,0.5],[1,0.5]];portConstraint=eastwest;rotatable=0;whiteSpace=wrap;html=1;" parent="SOv-WeR4spH_BK_9IkAW-9" vertex="1">
          <mxGeometry y="60" width="140" height="30" as="geometry" />
        </mxCell>
        <mxCell id="SOv-WeR4spH_BK_9IkAW-12" value="Item 3" style="text;strokeColor=none;fillColor=none;align=left;verticalAlign=middle;spacingLeft=4;spacingRight=4;overflow=hidden;points=[[0,0.5],[1,0.5]];portConstraint=eastwest;rotatable=0;whiteSpace=wrap;html=1;" parent="SOv-WeR4spH_BK_9IkAW-9" vertex="1">
          <mxGeometry y="90" width="140" height="30" as="geometry" />
        </mxCell>
        <mxCell id="SOv-WeR4spH_BK_9IkAW-15" value="PlayerManager" style="swimlane;fontStyle=0;childLayout=stackLayout;horizontal=1;startSize=30;horizontalStack=0;resizeParent=1;resizeParentMax=0;resizeLast=0;collapsible=1;marginBottom=0;whiteSpace=wrap;html=1;fillColor=#fff2cc;strokeColor=#d6b656;" parent="1" vertex="1">
          <mxGeometry x="-120" y="520" width="140" height="120" as="geometry" />
        </mxCell>
        <mxCell id="SOv-WeR4spH_BK_9IkAW-16" value="Item 1" style="text;strokeColor=none;fillColor=none;align=left;verticalAlign=middle;spacingLeft=4;spacingRight=4;overflow=hidden;points=[[0,0.5],[1,0.5]];portConstraint=eastwest;rotatable=0;whiteSpace=wrap;html=1;" parent="SOv-WeR4spH_BK_9IkAW-15" vertex="1">
          <mxGeometry y="30" width="140" height="30" as="geometry" />
        </mxCell>
        <mxCell id="SOv-WeR4spH_BK_9IkAW-17" value="Item 2" style="text;strokeColor=none;fillColor=none;align=left;verticalAlign=middle;spacingLeft=4;spacingRight=4;overflow=hidden;points=[[0,0.5],[1,0.5]];portConstraint=eastwest;rotatable=0;whiteSpace=wrap;html=1;" parent="SOv-WeR4spH_BK_9IkAW-15" vertex="1">
          <mxGeometry y="60" width="140" height="30" as="geometry" />
        </mxCell>
        <mxCell id="SOv-WeR4spH_BK_9IkAW-18" value="Item 3" style="text;strokeColor=none;fillColor=none;align=left;verticalAlign=middle;spacingLeft=4;spacingRight=4;overflow=hidden;points=[[0,0.5],[1,0.5]];portConstraint=eastwest;rotatable=0;whiteSpace=wrap;html=1;" parent="SOv-WeR4spH_BK_9IkAW-15" vertex="1">
          <mxGeometry y="90" width="140" height="30" as="geometry" />
        </mxCell>
        <mxCell id="SOv-WeR4spH_BK_9IkAW-19" value="Player" style="rounded=0;whiteSpace=wrap;html=1;fillColor=#fff2cc;strokeColor=#d6b656;" parent="1" vertex="1">
          <mxGeometry x="-1160" y="-210" width="120" height="60" as="geometry" />
        </mxCell>
        <mxCell id="SOv-WeR4spH_BK_9IkAW-46" style="edgeStyle=orthogonalEdgeStyle;rounded=0;orthogonalLoop=1;jettySize=auto;html=1;entryX=0.5;entryY=0;entryDx=0;entryDy=0;" parent="1" source="SOv-WeR4spH_BK_9IkAW-20" target="SOv-WeR4spH_BK_9IkAW-41" edge="1">
          <mxGeometry relative="1" as="geometry">
            <Array as="points">
              <mxPoint x="-760" y="-120" />
              <mxPoint x="-880" y="-120" />
            </Array>
          </mxGeometry>
        </mxCell>
        <mxCell id="SOv-WeR4spH_BK_9IkAW-47" style="edgeStyle=orthogonalEdgeStyle;rounded=0;orthogonalLoop=1;jettySize=auto;html=1;entryX=0.5;entryY=0;entryDx=0;entryDy=0;" parent="1" source="SOv-WeR4spH_BK_9IkAW-20" target="SOv-WeR4spH_BK_9IkAW-42" edge="1">
          <mxGeometry relative="1" as="geometry">
            <Array as="points">
              <mxPoint x="-760" y="-120" />
              <mxPoint x="-660" y="-120" />
            </Array>
          </mxGeometry>
        </mxCell>
        <mxCell id="SOv-WeR4spH_BK_9IkAW-20" value="NPC" style="rounded=0;whiteSpace=wrap;html=1;fillColor=#fff2cc;strokeColor=#d6b656;" parent="1" vertex="1">
          <mxGeometry x="-820" y="-210" width="120" height="60" as="geometry" />
        </mxCell>
        <mxCell id="SOv-WeR4spH_BK_9IkAW-21" value="box" style="rounded=0;whiteSpace=wrap;html=1;fillColor=#fff2cc;strokeColor=#d6b656;" parent="1" vertex="1">
          <mxGeometry x="-985" y="-210" width="120" height="60" as="geometry" />
        </mxCell>
        <mxCell id="SOv-WeR4spH_BK_9IkAW-25" style="edgeStyle=orthogonalEdgeStyle;rounded=0;orthogonalLoop=1;jettySize=auto;html=1;entryX=0.5;entryY=0;entryDx=0;entryDy=0;" parent="1" source="SOv-WeR4spH_BK_9IkAW-22" target="SOv-WeR4spH_BK_9IkAW-23" edge="1">
          <mxGeometry relative="1" as="geometry" />
        </mxCell>
        <mxCell id="SOv-WeR4spH_BK_9IkAW-26" style="edgeStyle=orthogonalEdgeStyle;rounded=0;orthogonalLoop=1;jettySize=auto;html=1;entryX=0.5;entryY=0;entryDx=0;entryDy=0;" parent="1" source="SOv-WeR4spH_BK_9IkAW-22" target="SOv-WeR4spH_BK_9IkAW-24" edge="1">
          <mxGeometry relative="1" as="geometry" />
        </mxCell>
        <mxCell id="SOv-WeR4spH_BK_9IkAW-22" value="Item" style="rounded=0;whiteSpace=wrap;html=1;fillColor=#f8cecc;strokeColor=#b85450;" parent="1" vertex="1">
          <mxGeometry x="-380" y="-210" width="120" height="60" as="geometry" />
        </mxCell>
        <mxCell id="SOv-WeR4spH_BK_9IkAW-23" value="Weapon" style="rounded=0;whiteSpace=wrap;html=1;fillColor=#fff2cc;strokeColor=#d6b656;" parent="1" vertex="1">
          <mxGeometry x="-480" y="-80" width="120" height="60" as="geometry" />
        </mxCell>
        <mxCell id="SOv-WeR4spH_BK_9IkAW-24" value="Consumable Item" style="rounded=0;whiteSpace=wrap;html=1;fillColor=#fff2cc;strokeColor=#d6b656;" parent="1" vertex="1">
          <mxGeometry x="-280" y="-80" width="120" height="60" as="geometry" />
        </mxCell>
        <mxCell id="SOv-WeR4spH_BK_9IkAW-27" value="block" style="rounded=0;whiteSpace=wrap;html=1;fillColor=#fff2cc;strokeColor=#d6b656;" parent="1" vertex="1">
          <mxGeometry x="50" y="-210" width="120" height="60" as="geometry" />
        </mxCell>
        <mxCell id="SOv-WeR4spH_BK_9IkAW-28" value="Treasure" style="rounded=0;whiteSpace=wrap;html=1;fillColor=#fff2cc;strokeColor=#d6b656;" parent="1" vertex="1">
          <mxGeometry x="-180" y="-200" width="120" height="60" as="geometry" />
        </mxCell>
        <mxCell id="SOv-WeR4spH_BK_9IkAW-34" style="edgeStyle=orthogonalEdgeStyle;rounded=0;orthogonalLoop=1;jettySize=auto;html=1;entryX=0.5;entryY=0;entryDx=0;entryDy=0;" parent="1" source="SOv-WeR4spH_BK_9IkAW-29" target="SOv-WeR4spH_BK_9IkAW-30" edge="1">
          <mxGeometry relative="1" as="geometry">
            <Array as="points">
              <mxPoint x="-485" y="-370" />
              <mxPoint x="-925" y="-370" />
            </Array>
          </mxGeometry>
        </mxCell>
        <mxCell id="SOv-WeR4spH_BK_9IkAW-35" style="edgeStyle=orthogonalEdgeStyle;rounded=0;orthogonalLoop=1;jettySize=auto;html=1;entryX=0.5;entryY=0;entryDx=0;entryDy=0;" parent="1" source="SOv-WeR4spH_BK_9IkAW-29" target="SOv-WeR4spH_BK_9IkAW-31" edge="1">
          <mxGeometry relative="1" as="geometry">
            <Array as="points">
              <mxPoint x="-485" y="-370" />
              <mxPoint x="-120" y="-370" />
            </Array>
          </mxGeometry>
        </mxCell>
        <mxCell id="SOv-WeR4spH_BK_9IkAW-29" value="BaseObj" style="rounded=0;whiteSpace=wrap;html=1;fillColor=#f8cecc;strokeColor=#b85450;" parent="1" vertex="1">
          <mxGeometry x="-545" y="-470" width="120" height="60" as="geometry" />
        </mxCell>
        <mxCell id="SOv-WeR4spH_BK_9IkAW-32" style="edgeStyle=orthogonalEdgeStyle;rounded=0;orthogonalLoop=1;jettySize=auto;html=1;entryX=0.5;entryY=0;entryDx=0;entryDy=0;" parent="1" source="SOv-WeR4spH_BK_9IkAW-30" target="SOv-WeR4spH_BK_9IkAW-19" edge="1">
          <mxGeometry relative="1" as="geometry">
            <Array as="points">
              <mxPoint x="-925" y="-240" />
              <mxPoint x="-1100" y="-240" />
            </Array>
          </mxGeometry>
        </mxCell>
        <mxCell id="SOv-WeR4spH_BK_9IkAW-33" style="edgeStyle=orthogonalEdgeStyle;rounded=0;orthogonalLoop=1;jettySize=auto;html=1;entryX=0.5;entryY=0;entryDx=0;entryDy=0;" parent="1" source="SOv-WeR4spH_BK_9IkAW-30" target="SOv-WeR4spH_BK_9IkAW-20" edge="1">
          <mxGeometry relative="1" as="geometry">
            <Array as="points">
              <mxPoint x="-925" y="-240" />
              <mxPoint x="-760" y="-240" />
            </Array>
          </mxGeometry>
        </mxCell>
        <mxCell id="xlIwwzbyZTqIuVXZvjKy-2" style="edgeStyle=orthogonalEdgeStyle;rounded=0;orthogonalLoop=1;jettySize=auto;html=1;entryX=0.5;entryY=0;entryDx=0;entryDy=0;" parent="1" source="SOv-WeR4spH_BK_9IkAW-30" target="SOv-WeR4spH_BK_9IkAW-21" edge="1">
          <mxGeometry relative="1" as="geometry" />
        </mxCell>
        <mxCell id="SOv-WeR4spH_BK_9IkAW-30" value="LivingObj" style="rounded=0;whiteSpace=wrap;html=1;fillColor=#f8cecc;strokeColor=#b85450;" parent="1" vertex="1">
          <mxGeometry x="-985" y="-340" width="120" height="60" as="geometry" />
        </mxCell>
        <mxCell id="SOv-WeR4spH_BK_9IkAW-37" style="edgeStyle=orthogonalEdgeStyle;rounded=0;orthogonalLoop=1;jettySize=auto;html=1;entryX=0.5;entryY=0;entryDx=0;entryDy=0;" parent="1" source="SOv-WeR4spH_BK_9IkAW-31" target="SOv-WeR4spH_BK_9IkAW-22" edge="1">
          <mxGeometry relative="1" as="geometry">
            <Array as="points">
              <mxPoint x="-120" y="-250" />
              <mxPoint x="-320" y="-250" />
            </Array>
          </mxGeometry>
        </mxCell>
        <mxCell id="SOv-WeR4spH_BK_9IkAW-38" style="edgeStyle=orthogonalEdgeStyle;rounded=0;orthogonalLoop=1;jettySize=auto;html=1;entryX=0.5;entryY=0;entryDx=0;entryDy=0;" parent="1" source="SOv-WeR4spH_BK_9IkAW-31" target="SOv-WeR4spH_BK_9IkAW-27" edge="1">
          <mxGeometry relative="1" as="geometry">
            <Array as="points">
              <mxPoint x="-120" y="-250" />
              <mxPoint x="110" y="-250" />
            </Array>
          </mxGeometry>
        </mxCell>
        <mxCell id="xlIwwzbyZTqIuVXZvjKy-1" style="edgeStyle=orthogonalEdgeStyle;rounded=0;orthogonalLoop=1;jettySize=auto;html=1;entryX=0.5;entryY=0;entryDx=0;entryDy=0;" parent="1" source="SOv-WeR4spH_BK_9IkAW-31" target="SOv-WeR4spH_BK_9IkAW-28" edge="1">
          <mxGeometry relative="1" as="geometry" />
        </mxCell>
        <mxCell id="SOv-WeR4spH_BK_9IkAW-31" value="NonLivingObj" style="rounded=0;whiteSpace=wrap;html=1;fillColor=#f8cecc;strokeColor=#b85450;" parent="1" vertex="1">
          <mxGeometry x="-180" y="-340" width="120" height="60" as="geometry" />
        </mxCell>
        <mxCell id="SOv-WeR4spH_BK_9IkAW-41" value="Monster" style="rounded=0;whiteSpace=wrap;html=1;fillColor=#fff2cc;strokeColor=#d6b656;" parent="1" vertex="1">
          <mxGeometry x="-940" y="-70" width="120" height="60" as="geometry" />
        </mxCell>
        <mxCell id="SOv-WeR4spH_BK_9IkAW-42" value="Neutral" style="rounded=0;whiteSpace=wrap;html=1;fillColor=#fff2cc;strokeColor=#d6b656;" parent="1" vertex="1">
          <mxGeometry x="-720" y="-70" width="120" height="60" as="geometry" />
        </mxCell>
        <mxCell id="SOv-WeR4spH_BK_9IkAW-43" value="StoryTeller" style="rounded=0;whiteSpace=wrap;html=1;fillColor=#dae8fc;strokeColor=#6c8ebf;" parent="1" vertex="1">
          <mxGeometry x="-730" y="-300" width="120" height="60" as="geometry" />
        </mxCell>
        <mxCell id="SOv-WeR4spH_BK_9IkAW-45" value="Merchant" style="rounded=0;whiteSpace=wrap;html=1;fillColor=#dae8fc;strokeColor=#6c8ebf;" parent="1" vertex="1">
          <mxGeometry x="-580" y="-300" width="120" height="60" as="geometry" />
        </mxCell>
        <mxCell id="SOv-WeR4spH_BK_9IkAW-48" value="Color" style="swimlane;fontStyle=0;childLayout=stackLayout;horizontal=1;startSize=30;horizontalStack=0;resizeParent=1;resizeParentMax=0;resizeLast=0;collapsible=1;marginBottom=0;whiteSpace=wrap;html=1;" parent="1" vertex="1">
          <mxGeometry x="-1150" y="-500" width="140" height="120" as="geometry" />
        </mxCell>
        <mxCell id="SOv-WeR4spH_BK_9IkAW-49" value="Interface" style="text;strokeColor=#6c8ebf;fillColor=#dae8fc;align=left;verticalAlign=middle;spacingLeft=4;spacingRight=4;overflow=hidden;points=[[0,0.5],[1,0.5]];portConstraint=eastwest;rotatable=0;whiteSpace=wrap;html=1;" parent="SOv-WeR4spH_BK_9IkAW-48" vertex="1">
          <mxGeometry y="30" width="140" height="30" as="geometry" />
        </mxCell>
        <mxCell id="SOv-WeR4spH_BK_9IkAW-50" value="Abstract Class" style="text;strokeColor=#b85450;fillColor=#f8cecc;align=left;verticalAlign=middle;spacingLeft=4;spacingRight=4;overflow=hidden;points=[[0,0.5],[1,0.5]];portConstraint=eastwest;rotatable=0;whiteSpace=wrap;html=1;" parent="SOv-WeR4spH_BK_9IkAW-48" vertex="1">
          <mxGeometry y="60" width="140" height="30" as="geometry" />
        </mxCell>
        <mxCell id="SOv-WeR4spH_BK_9IkAW-51" value="Class" style="text;strokeColor=#d6b656;fillColor=#fff2cc;align=left;verticalAlign=middle;spacingLeft=4;spacingRight=4;overflow=hidden;points=[[0,0.5],[1,0.5]];portConstraint=eastwest;rotatable=0;whiteSpace=wrap;html=1;" parent="SOv-WeR4spH_BK_9IkAW-48" vertex="1">
          <mxGeometry y="90" width="140" height="30" as="geometry" />
        </mxCell>
        <mxCell id="naJlyt8soRsQFLFPdeXK-17" style="edgeStyle=orthogonalEdgeStyle;rounded=0;orthogonalLoop=1;jettySize=auto;html=1;entryX=0.5;entryY=0;entryDx=0;entryDy=0;" parent="1" source="naJlyt8soRsQFLFPdeXK-1" target="naJlyt8soRsQFLFPdeXK-5" edge="1">
          <mxGeometry relative="1" as="geometry">
            <Array as="points">
              <mxPoint x="860" y="-280" />
              <mxPoint x="630" y="-280" />
            </Array>
          </mxGeometry>
        </mxCell>
        <mxCell id="naJlyt8soRsQFLFPdeXK-18" style="edgeStyle=orthogonalEdgeStyle;rounded=0;orthogonalLoop=1;jettySize=auto;html=1;entryX=0.5;entryY=0;entryDx=0;entryDy=0;" parent="1" source="naJlyt8soRsQFLFPdeXK-1" target="naJlyt8soRsQFLFPdeXK-9" edge="1">
          <mxGeometry relative="1" as="geometry" />
        </mxCell>
        <mxCell id="naJlyt8soRsQFLFPdeXK-19" style="edgeStyle=orthogonalEdgeStyle;rounded=0;orthogonalLoop=1;jettySize=auto;html=1;entryX=0.5;entryY=0;entryDx=0;entryDy=0;" parent="1" source="naJlyt8soRsQFLFPdeXK-1" target="naJlyt8soRsQFLFPdeXK-13" edge="1">
          <mxGeometry relative="1" as="geometry">
            <Array as="points">
              <mxPoint x="860" y="-280" />
              <mxPoint x="1060" y="-280" />
            </Array>
          </mxGeometry>
        </mxCell>
        <mxCell id="naJlyt8soRsQFLFPdeXK-1" value="Skill" style="swimlane;fontStyle=0;childLayout=stackLayout;horizontal=1;startSize=30;horizontalStack=0;resizeParent=1;resizeParentMax=0;resizeLast=0;collapsible=1;marginBottom=0;whiteSpace=wrap;html=1;fillColor=#f8cecc;strokeColor=#b85450;" parent="1" vertex="1">
          <mxGeometry x="790" y="-430" width="140" height="120" as="geometry" />
        </mxCell>
        <mxCell id="naJlyt8soRsQFLFPdeXK-2" value="Cooldown" style="text;strokeColor=none;fillColor=none;align=left;verticalAlign=middle;spacingLeft=4;spacingRight=4;overflow=hidden;points=[[0,0.5],[1,0.5]];portConstraint=eastwest;rotatable=0;whiteSpace=wrap;html=1;" parent="naJlyt8soRsQFLFPdeXK-1" vertex="1">
          <mxGeometry y="30" width="140" height="30" as="geometry" />
        </mxCell>
        <mxCell id="naJlyt8soRsQFLFPdeXK-20" value="Charge" style="text;strokeColor=none;fillColor=none;align=left;verticalAlign=middle;spacingLeft=4;spacingRight=4;overflow=hidden;points=[[0,0.5],[1,0.5]];portConstraint=eastwest;rotatable=0;whiteSpace=wrap;html=1;" parent="naJlyt8soRsQFLFPdeXK-1" vertex="1">
          <mxGeometry y="60" width="140" height="30" as="geometry" />
        </mxCell>
        <mxCell id="naJlyt8soRsQFLFPdeXK-21" value="Perform" style="text;strokeColor=none;fillColor=none;align=left;verticalAlign=middle;spacingLeft=4;spacingRight=4;overflow=hidden;points=[[0,0.5],[1,0.5]];portConstraint=eastwest;rotatable=0;whiteSpace=wrap;html=1;" parent="naJlyt8soRsQFLFPdeXK-1" vertex="1">
          <mxGeometry y="90" width="140" height="30" as="geometry" />
        </mxCell>
        <mxCell id="naJlyt8soRsQFLFPdeXK-5" value="CharacterSkill" style="swimlane;fontStyle=0;childLayout=stackLayout;horizontal=1;startSize=30;horizontalStack=0;resizeParent=1;resizeParentMax=0;resizeLast=0;collapsible=1;marginBottom=0;whiteSpace=wrap;html=1;fillColor=#fff2cc;strokeColor=#d6b656;" parent="1" vertex="1">
          <mxGeometry x="560" y="-240" width="140" height="120" as="geometry" />
        </mxCell>
        <mxCell id="naJlyt8soRsQFLFPdeXK-6" value="Buff" style="text;strokeColor=none;fillColor=none;align=left;verticalAlign=middle;spacingLeft=4;spacingRight=4;overflow=hidden;points=[[0,0.5],[1,0.5]];portConstraint=eastwest;rotatable=0;whiteSpace=wrap;html=1;" parent="naJlyt8soRsQFLFPdeXK-5" vertex="1">
          <mxGeometry y="30" width="140" height="30" as="geometry" />
        </mxCell>
        <mxCell id="naJlyt8soRsQFLFPdeXK-7" value="Regen" style="text;strokeColor=none;fillColor=none;align=left;verticalAlign=middle;spacingLeft=4;spacingRight=4;overflow=hidden;points=[[0,0.5],[1,0.5]];portConstraint=eastwest;rotatable=0;whiteSpace=wrap;html=1;" parent="naJlyt8soRsQFLFPdeXK-5" vertex="1">
          <mxGeometry y="60" width="140" height="30" as="geometry" />
        </mxCell>
        <mxCell id="naJlyt8soRsQFLFPdeXK-8" value="Restore" style="text;strokeColor=none;fillColor=none;align=left;verticalAlign=middle;spacingLeft=4;spacingRight=4;overflow=hidden;points=[[0,0.5],[1,0.5]];portConstraint=eastwest;rotatable=0;whiteSpace=wrap;html=1;" parent="naJlyt8soRsQFLFPdeXK-5" vertex="1">
          <mxGeometry y="90" width="140" height="30" as="geometry" />
        </mxCell>
        <mxCell id="naJlyt8soRsQFLFPdeXK-9" value="ShootSkill" style="swimlane;fontStyle=0;childLayout=stackLayout;horizontal=1;startSize=30;horizontalStack=0;resizeParent=1;resizeParentMax=0;resizeLast=0;collapsible=1;marginBottom=0;whiteSpace=wrap;html=1;fillColor=#fff2cc;strokeColor=#d6b656;" parent="1" vertex="1">
          <mxGeometry x="790" y="-240" width="140" height="120" as="geometry" />
        </mxCell>
        <mxCell id="naJlyt8soRsQFLFPdeXK-10" value="Spread" style="text;strokeColor=none;fillColor=none;align=left;verticalAlign=middle;spacingLeft=4;spacingRight=4;overflow=hidden;points=[[0,0.5],[1,0.5]];portConstraint=eastwest;rotatable=0;whiteSpace=wrap;html=1;" parent="naJlyt8soRsQFLFPdeXK-9" vertex="1">
          <mxGeometry y="30" width="140" height="30" as="geometry" />
        </mxCell>
        <mxCell id="naJlyt8soRsQFLFPdeXK-11" value="Range" style="text;strokeColor=none;fillColor=none;align=left;verticalAlign=middle;spacingLeft=4;spacingRight=4;overflow=hidden;points=[[0,0.5],[1,0.5]];portConstraint=eastwest;rotatable=0;whiteSpace=wrap;html=1;" parent="naJlyt8soRsQFLFPdeXK-9" vertex="1">
          <mxGeometry y="60" width="140" height="30" as="geometry" />
        </mxCell>
        <mxCell id="naJlyt8soRsQFLFPdeXK-12" value="Burst" style="text;strokeColor=none;fillColor=none;align=left;verticalAlign=middle;spacingLeft=4;spacingRight=4;overflow=hidden;points=[[0,0.5],[1,0.5]];portConstraint=eastwest;rotatable=0;whiteSpace=wrap;html=1;" parent="naJlyt8soRsQFLFPdeXK-9" vertex="1">
          <mxGeometry y="90" width="140" height="30" as="geometry" />
        </mxCell>
        <mxCell id="naJlyt8soRsQFLFPdeXK-13" value="MeleeSkill" style="swimlane;fontStyle=0;childLayout=stackLayout;horizontal=1;startSize=30;horizontalStack=0;resizeParent=1;resizeParentMax=0;resizeLast=0;collapsible=1;marginBottom=0;whiteSpace=wrap;html=1;fillColor=#fff2cc;strokeColor=#d6b656;" parent="1" vertex="1">
          <mxGeometry x="990" y="-240" width="140" height="90" as="geometry" />
        </mxCell>
        <mxCell id="naJlyt8soRsQFLFPdeXK-14" value="Spread" style="text;strokeColor=none;fillColor=none;align=left;verticalAlign=middle;spacingLeft=4;spacingRight=4;overflow=hidden;points=[[0,0.5],[1,0.5]];portConstraint=eastwest;rotatable=0;whiteSpace=wrap;html=1;" parent="naJlyt8soRsQFLFPdeXK-13" vertex="1">
          <mxGeometry y="30" width="140" height="30" as="geometry" />
        </mxCell>
        <mxCell id="naJlyt8soRsQFLFPdeXK-15" value="Distance" style="text;strokeColor=none;fillColor=none;align=left;verticalAlign=middle;spacingLeft=4;spacingRight=4;overflow=hidden;points=[[0,0.5],[1,0.5]];portConstraint=eastwest;rotatable=0;whiteSpace=wrap;html=1;" parent="naJlyt8soRsQFLFPdeXK-13" vertex="1">
          <mxGeometry y="60" width="140" height="30" as="geometry" />
        </mxCell>
        <mxCell id="naJlyt8soRsQFLFPdeXK-22" value="Movement" style="swimlane;fontStyle=0;childLayout=stackLayout;horizontal=1;startSize=30;horizontalStack=0;resizeParent=1;resizeParentMax=0;resizeLast=0;collapsible=1;marginBottom=0;whiteSpace=wrap;html=1;fillColor=#fff2cc;strokeColor=#d6b656;" parent="1" vertex="1">
          <mxGeometry x="1230" y="-440" width="140" height="90" as="geometry" />
        </mxCell>
        <mxCell id="naJlyt8soRsQFLFPdeXK-23" value="MoveSpeed" style="text;strokeColor=none;fillColor=none;align=left;verticalAlign=middle;spacingLeft=4;spacingRight=4;overflow=hidden;points=[[0,0.5],[1,0.5]];portConstraint=eastwest;rotatable=0;whiteSpace=wrap;html=1;" parent="naJlyt8soRsQFLFPdeXK-22" vertex="1">
          <mxGeometry y="30" width="140" height="30" as="geometry" />
        </mxCell>
        <mxCell id="naJlyt8soRsQFLFPdeXK-24" value="Dir" style="text;strokeColor=none;fillColor=none;align=left;verticalAlign=middle;spacingLeft=4;spacingRight=4;overflow=hidden;points=[[0,0.5],[1,0.5]];portConstraint=eastwest;rotatable=0;whiteSpace=wrap;html=1;" parent="naJlyt8soRsQFLFPdeXK-22" vertex="1">
          <mxGeometry y="60" width="140" height="30" as="geometry" />
        </mxCell>
        <mxCell id="naJlyt8soRsQFLFPdeXK-26" value="Despawn" style="swimlane;fontStyle=0;childLayout=stackLayout;horizontal=1;startSize=30;horizontalStack=0;resizeParent=1;resizeParentMax=0;resizeLast=0;collapsible=1;marginBottom=0;whiteSpace=wrap;html=1;fillColor=#fff2cc;strokeColor=#d6b656;" parent="1" vertex="1">
          <mxGeometry x="1450" y="-440" width="140" height="60" as="geometry" />
        </mxCell>
        <mxCell id="naJlyt8soRsQFLFPdeXK-27" value="DespawnObj" style="text;strokeColor=none;fillColor=none;align=left;verticalAlign=middle;spacingLeft=4;spacingRight=4;overflow=hidden;points=[[0,0.5],[1,0.5]];portConstraint=eastwest;rotatable=0;whiteSpace=wrap;html=1;" parent="naJlyt8soRsQFLFPdeXK-26" vertex="1">
          <mxGeometry y="30" width="140" height="30" as="geometry" />
        </mxCell>
        <mxCell id="naJlyt8soRsQFLFPdeXK-30" value="PlayerObj" style="swimlane;fontStyle=0;childLayout=stackLayout;horizontal=1;startSize=30;horizontalStack=0;resizeParent=1;resizeParentMax=0;resizeLast=0;collapsible=1;marginBottom=0;whiteSpace=wrap;html=1;fillColor=#fff2cc;strokeColor=#d6b656;" parent="1" vertex="1">
          <mxGeometry x="1380" y="-230" width="140" height="120" as="geometry" />
        </mxCell>
        <mxCell id="naJlyt8soRsQFLFPdeXK-31" value="1 Move" style="text;strokeColor=none;fillColor=none;align=left;verticalAlign=middle;spacingLeft=4;spacingRight=4;overflow=hidden;points=[[0,0.5],[1,0.5]];portConstraint=eastwest;rotatable=0;whiteSpace=wrap;html=1;" parent="naJlyt8soRsQFLFPdeXK-30" vertex="1">
          <mxGeometry y="30" width="140" height="30" as="geometry" />
        </mxCell>
        <mxCell id="naJlyt8soRsQFLFPdeXK-32" value="2 Weapons" style="text;strokeColor=none;fillColor=none;align=left;verticalAlign=middle;spacingLeft=4;spacingRight=4;overflow=hidden;points=[[0,0.5],[1,0.5]];portConstraint=eastwest;rotatable=0;whiteSpace=wrap;html=1;" parent="naJlyt8soRsQFLFPdeXK-30" vertex="1">
          <mxGeometry y="60" width="140" height="30" as="geometry" />
        </mxCell>
        <mxCell id="naJlyt8soRsQFLFPdeXK-34" value="1 CharacterSkill" style="text;strokeColor=none;fillColor=none;align=left;verticalAlign=middle;spacingLeft=4;spacingRight=4;overflow=hidden;points=[[0,0.5],[1,0.5]];portConstraint=eastwest;rotatable=0;whiteSpace=wrap;html=1;" parent="naJlyt8soRsQFLFPdeXK-30" vertex="1">
          <mxGeometry y="90" width="140" height="30" as="geometry" />
        </mxCell>
        <mxCell id="ZsqUjU1IEsfemcQimYtK-8" style="edgeStyle=orthogonalEdgeStyle;rounded=0;orthogonalLoop=1;jettySize=auto;html=1;entryX=0.5;entryY=0;entryDx=0;entryDy=0;" edge="1" parent="1" source="ZsqUjU1IEsfemcQimYtK-1" target="ZsqUjU1IEsfemcQimYtK-3">
          <mxGeometry relative="1" as="geometry">
            <Array as="points">
              <mxPoint x="-1440" y="430" />
              <mxPoint x="-1590" y="430" />
            </Array>
          </mxGeometry>
        </mxCell>
        <mxCell id="ZsqUjU1IEsfemcQimYtK-9" style="edgeStyle=orthogonalEdgeStyle;rounded=0;orthogonalLoop=1;jettySize=auto;html=1;entryX=0.5;entryY=0;entryDx=0;entryDy=0;" edge="1" parent="1" source="ZsqUjU1IEsfemcQimYtK-1" target="ZsqUjU1IEsfemcQimYtK-2">
          <mxGeometry relative="1" as="geometry">
            <Array as="points">
              <mxPoint x="-1440" y="430" />
              <mxPoint x="-1260" y="430" />
            </Array>
          </mxGeometry>
        </mxCell>
        <mxCell id="ZsqUjU1IEsfemcQimYtK-1" value="User" style="rounded=0;whiteSpace=wrap;html=1;fillColor=#fff2cc;strokeColor=#d6b656;" vertex="1" parent="1">
          <mxGeometry x="-1500" y="325" width="120" height="60" as="geometry" />
        </mxCell>
        <mxCell id="ZsqUjU1IEsfemcQimYtK-12" style="edgeStyle=orthogonalEdgeStyle;rounded=0;orthogonalLoop=1;jettySize=auto;html=1;entryX=0.5;entryY=0;entryDx=0;entryDy=0;" edge="1" parent="1" source="ZsqUjU1IEsfemcQimYtK-2" target="ZsqUjU1IEsfemcQimYtK-6">
          <mxGeometry relative="1" as="geometry" />
        </mxCell>
        <mxCell id="ZsqUjU1IEsfemcQimYtK-13" style="edgeStyle=orthogonalEdgeStyle;rounded=0;orthogonalLoop=1;jettySize=auto;html=1;entryX=0.5;entryY=0;entryDx=0;entryDy=0;" edge="1" parent="1" source="ZsqUjU1IEsfemcQimYtK-2" target="ZsqUjU1IEsfemcQimYtK-5">
          <mxGeometry relative="1" as="geometry" />
        </mxCell>
        <mxCell id="ZsqUjU1IEsfemcQimYtK-2" value="User" style="rounded=0;whiteSpace=wrap;html=1;fillColor=#fff2cc;strokeColor=#d6b656;" vertex="1" parent="1">
          <mxGeometry x="-1320" y="460" width="120" height="60" as="geometry" />
        </mxCell>
        <mxCell id="ZsqUjU1IEsfemcQimYtK-10" style="edgeStyle=orthogonalEdgeStyle;rounded=0;orthogonalLoop=1;jettySize=auto;html=1;entryX=0.5;entryY=0;entryDx=0;entryDy=0;" edge="1" parent="1" source="ZsqUjU1IEsfemcQimYtK-3" target="ZsqUjU1IEsfemcQimYtK-4">
          <mxGeometry relative="1" as="geometry" />
        </mxCell>
        <mxCell id="ZsqUjU1IEsfemcQimYtK-11" style="edgeStyle=orthogonalEdgeStyle;rounded=0;orthogonalLoop=1;jettySize=auto;html=1;entryX=0.5;entryY=0;entryDx=0;entryDy=0;" edge="1" parent="1" source="ZsqUjU1IEsfemcQimYtK-3" target="ZsqUjU1IEsfemcQimYtK-7">
          <mxGeometry relative="1" as="geometry" />
        </mxCell>
        <mxCell id="ZsqUjU1IEsfemcQimYtK-3" value="User" style="rounded=0;whiteSpace=wrap;html=1;fillColor=#fff2cc;strokeColor=#d6b656;" vertex="1" parent="1">
          <mxGeometry x="-1650" y="460" width="120" height="60" as="geometry" />
        </mxCell>
        <mxCell id="ZsqUjU1IEsfemcQimYtK-4" value="User" style="rounded=0;whiteSpace=wrap;html=1;fillColor=#fff2cc;strokeColor=#d6b656;" vertex="1" parent="1">
          <mxGeometry x="-1740" y="590" width="120" height="60" as="geometry" />
        </mxCell>
        <mxCell id="ZsqUjU1IEsfemcQimYtK-5" value="User" style="rounded=0;whiteSpace=wrap;html=1;fillColor=#fff2cc;strokeColor=#d6b656;" vertex="1" parent="1">
          <mxGeometry x="-1240" y="590" width="120" height="60" as="geometry" />
        </mxCell>
        <mxCell id="ZsqUjU1IEsfemcQimYtK-6" value="User" style="rounded=0;whiteSpace=wrap;html=1;fillColor=#fff2cc;strokeColor=#d6b656;" vertex="1" parent="1">
          <mxGeometry x="-1400" y="590" width="120" height="60" as="geometry" />
        </mxCell>
        <mxCell id="ZsqUjU1IEsfemcQimYtK-7" value="User" style="rounded=0;whiteSpace=wrap;html=1;fillColor=#fff2cc;strokeColor=#d6b656;" vertex="1" parent="1">
          <mxGeometry x="-1570" y="590" width="120" height="60" as="geometry" />
        </mxCell>
        <mxCell id="ZsqUjU1IEsfemcQimYtK-16" style="edgeStyle=orthogonalEdgeStyle;rounded=0;orthogonalLoop=1;jettySize=auto;html=1;entryX=0.5;entryY=0;entryDx=0;entryDy=0;" edge="1" parent="1" source="ZsqUjU1IEsfemcQimYtK-14" target="ZsqUjU1IEsfemcQimYtK-15">
          <mxGeometry relative="1" as="geometry">
            <Array as="points">
              <mxPoint x="-2210" y="430" />
              <mxPoint x="-2360" y="430" />
            </Array>
          </mxGeometry>
        </mxCell>
        <mxCell id="ZsqUjU1IEsfemcQimYtK-22" style="edgeStyle=orthogonalEdgeStyle;rounded=0;orthogonalLoop=1;jettySize=auto;html=1;entryX=0.5;entryY=0;entryDx=0;entryDy=0;" edge="1" parent="1" source="ZsqUjU1IEsfemcQimYtK-14" target="ZsqUjU1IEsfemcQimYtK-17">
          <mxGeometry relative="1" as="geometry">
            <Array as="points">
              <mxPoint x="-2210" y="430" />
              <mxPoint x="-2065" y="430" />
            </Array>
          </mxGeometry>
        </mxCell>
        <mxCell id="ZsqUjU1IEsfemcQimYtK-14" value="Component" style="rounded=0;whiteSpace=wrap;html=1;fillColor=#f8cecc;strokeColor=#b85450;" vertex="1" parent="1">
          <mxGeometry x="-2270" y="320" width="120" height="60" as="geometry" />
        </mxCell>
        <mxCell id="ZsqUjU1IEsfemcQimYtK-15" value="Component" style="rounded=0;whiteSpace=wrap;html=1;fillColor=#f8cecc;strokeColor=#b85450;" vertex="1" parent="1">
          <mxGeometry x="-2420" y="470" width="120" height="60" as="geometry" />
        </mxCell>
        <mxCell id="ZsqUjU1IEsfemcQimYtK-17" value="Component" style="rounded=0;whiteSpace=wrap;html=1;fillColor=#f8cecc;strokeColor=#b85450;" vertex="1" parent="1">
          <mxGeometry x="-2125" y="470" width="120" height="60" as="geometry" />
        </mxCell>
        <mxCell id="ZsqUjU1IEsfemcQimYtK-40" style="edgeStyle=orthogonalEdgeStyle;rounded=0;orthogonalLoop=1;jettySize=auto;html=1;entryX=0.5;entryY=0;entryDx=0;entryDy=0;" edge="1" source="ZsqUjU1IEsfemcQimYtK-42" target="ZsqUjU1IEsfemcQimYtK-43" parent="1">
          <mxGeometry relative="1" as="geometry">
            <Array as="points">
              <mxPoint x="-2180" y="800" />
              <mxPoint x="-2330" y="800" />
            </Array>
          </mxGeometry>
        </mxCell>
        <mxCell id="ZsqUjU1IEsfemcQimYtK-41" style="edgeStyle=orthogonalEdgeStyle;rounded=0;orthogonalLoop=1;jettySize=auto;html=1;entryX=0.5;entryY=0;entryDx=0;entryDy=0;" edge="1" source="ZsqUjU1IEsfemcQimYtK-42" target="ZsqUjU1IEsfemcQimYtK-44" parent="1">
          <mxGeometry relative="1" as="geometry">
            <Array as="points">
              <mxPoint x="-2180" y="800" />
              <mxPoint x="-2035" y="800" />
            </Array>
          </mxGeometry>
        </mxCell>
        <mxCell id="ZsqUjU1IEsfemcQimYtK-42" value="ComponentUser" style="rounded=0;whiteSpace=wrap;html=1;fillColor=#dae8fc;strokeColor=#6c8ebf;" vertex="1" parent="1">
          <mxGeometry x="-2240" y="690" width="120" height="60" as="geometry" />
        </mxCell>
        <mxCell id="ZsqUjU1IEsfemcQimYtK-43" value="ComponentUser" style="rounded=0;whiteSpace=wrap;html=1;fillColor=#dae8fc;strokeColor=#6c8ebf;" vertex="1" parent="1">
          <mxGeometry x="-2390" y="840" width="120" height="60" as="geometry" />
        </mxCell>
        <mxCell id="ZsqUjU1IEsfemcQimYtK-44" value="ComponentUser" style="rounded=0;whiteSpace=wrap;html=1;fillColor=#dae8fc;strokeColor=#6c8ebf;" vertex="1" parent="1">
          <mxGeometry x="-2095" y="840" width="120" height="60" as="geometry" />
        </mxCell>
        <mxCell id="ZsqUjU1IEsfemcQimYtK-46" style="edgeStyle=orthogonalEdgeStyle;rounded=0;orthogonalLoop=1;jettySize=auto;html=1;entryX=0.5;entryY=1;entryDx=0;entryDy=0;" edge="1" parent="1" source="ZsqUjU1IEsfemcQimYtK-45" target="ZsqUjU1IEsfemcQimYtK-4">
          <mxGeometry relative="1" as="geometry" />
        </mxCell>
        <mxCell id="ZsqUjU1IEsfemcQimYtK-45" value="ComponentUser" style="rounded=0;whiteSpace=wrap;html=1;fillColor=#dae8fc;strokeColor=#6c8ebf;" vertex="1" parent="1">
          <mxGeometry x="-1830" y="730" width="120" height="60" as="geometry" />
        </mxCell>
        <mxCell id="ZsqUjU1IEsfemcQimYtK-48" style="edgeStyle=orthogonalEdgeStyle;rounded=0;orthogonalLoop=1;jettySize=auto;html=1;entryX=0.5;entryY=1;entryDx=0;entryDy=0;" edge="1" parent="1" source="ZsqUjU1IEsfemcQimYtK-47" target="ZsqUjU1IEsfemcQimYtK-4">
          <mxGeometry relative="1" as="geometry" />
        </mxCell>
        <mxCell id="ZsqUjU1IEsfemcQimYtK-47" value="ComponentUser" style="rounded=0;whiteSpace=wrap;html=1;fillColor=#dae8fc;strokeColor=#6c8ebf;" vertex="1" parent="1">
          <mxGeometry x="-1660" y="730" width="120" height="60" as="geometry" />
        </mxCell>
      </root>
    </mxGraphModel>
  </diagram>
</mxfile>
